IKresults-template
version=1
nRows=13
nColumns=31
inDegrees=yes

Units are S.I. units (second, meters, Newtons, ...). First line should follow naming scheme of "IK<condition>-<trial>" (e.g. IK15-3).
If the header above contains a line with 'inDegrees', this indicates whether rotational values are in degrees (yes) or radians (no).

endheader
time	gndpitch	gndroll	gndyaw	spine_tx	spine_ty	spine_tz	pitch2	roll2	yaw2	aux7jnt_r3	aux7jnt_r1	aux7jnt_r2	aux6jnt_r3	aux6jnt_r1	aux6jnt_r2	aux5jnt_r3	aux5jnt_r1	aux5jnt_r2	aux4jnt_r3	aux4jnt_r1	aux4jnt_r2	aux3jnt_r3	aux3jnt_r1	aux3jnt_r2	pitch1	roll1	yaw1	aux1jnt_r3	aux1jnt_r1	aux1jnt_r2
      0.00000000	   -103.21237032	     38.22847652	    179.46006886	      0.41691135	      0.79658328	     -0.70828766	     -1.06456987	      0.68580591	      1.54052118	     -0.19907474	      0.09395533	      0.28961795	     -0.23420500	      0.10767160	      0.33737390	     -0.23420500	      0.14813397	      0.33737390	     -0.17565375	      0.14813397	      0.33737390	     -0.11710250	      0.13441808	      0.14480897	    -12.62160056	     -2.35253443	      2.92643451	     -7.01760644	     -1.17626721	      0.32483485
      0.01000000	   -103.28750866	     38.21022115	    179.46527428	      0.41696805	      0.79678840	     -0.70823676	     -1.08263225	      0.66040693	      1.41135192	     -0.20245241	      0.09047567	      0.26533413	     -0.23817872	      0.10368396	      0.30908585	     -0.23817872	      0.14264779	      0.30908585	     -0.17863404	      0.14264779	      0.30908585	     -0.11908936	      0.12943988	      0.13266706	    -12.62852909	     -2.39637051	      3.16230241	     -7.02145870	     -1.19818526	      0.35101624
      0.02000000	   -103.17420969	     38.24429000	    179.46029503	      0.41691292	      0.79646742	     -0.70831982	     -1.05323760	      0.63422406	      1.11265038	     -0.19695561	      0.08688862	      0.20917825	     -0.23171191	      0.09957325	      0.24367026	     -0.23171191	      0.13699230	      0.24367026	     -0.17378393	      0.13699230	      0.24367026	     -0.11585596	      0.12430803	      0.10458912	    -12.59750306	     -2.40778147	      3.64237460	     -7.00420823	     -1.20389073	      0.40430435
      0.03000000	   -103.25438308	     38.23788565	    179.45719373	      0.41696489	      0.79668907	     -0.70828033	     -1.12581793	      1.02920097	      3.51805161	     -0.21052814	      0.14100041	      0.66139362	     -0.24767956	      0.16158466	      0.77045276	     -0.24767956	      0.22230724	      0.77045276	     -0.18575967	      0.22230724	      0.77045276	     -0.12383978	      0.20172358	      0.33069681	    -12.65967812	     -2.25541128	     -0.46293191	     -7.03877755	     -1.12770564	     -0.05138554
      0.04000000	   -103.21778598	     38.22403207	    179.45680660	      0.41692977	      0.79661823	     -0.70828136	     -1.07507368	      0.60427889	      0.87252631	     -0.20103896	      0.08278614	      0.16403493	     -0.23651584	      0.09487185	      0.19108313	     -0.23651584	      0.13052414	      0.19108313	     -0.17738688	      0.13052414	      0.19108313	     -0.11825792	      0.11843877	      0.08201746	    -12.57385223	     -2.49972459	      4.15422785	     -6.99105838	     -1.24986229	      0.46112017
      0.05000000	   -103.23803961	     38.25385090	    179.45306344	      0.41699992	      0.79668539	     -0.70833783	     -1.05109897	      0.65822220	      1.29738701	     -0.19655568	      0.09017636	      0.24390873	     -0.23124141	      0.10334096	      0.28412755	     -0.23124141	      0.14217589	      0.28412755	     -0.17343106	      0.14217589	      0.28412755	     -0.11562071	      0.12901167	      0.12195436	    -12.65134657	     -2.39221040	      3.43520905	     -7.03414521	     -1.19610520	      0.38130893
      0.06000000	   -103.26510777	     38.21305570	    179.45840156	      0.41694553	      0.79675342	     -0.70825820	     -1.11317441	      0.64922961	      1.19755624	     -0.20816380	      0.08894438	      0.22514055	     -0.24489799	      0.10192912	      0.26226463	     -0.24489799	      0.14023349	      0.26226463	     -0.18367349	      0.14023349	      0.26226463	     -0.12244899	      0.12724912	      0.11257027	    -12.55115778	     -2.48427683	      3.61380934	     -6.97844027	     -1.24213841	      0.40113360
      0.07000000	   -103.24820221	     38.23695961	    179.45680345	      0.41693906	      0.79668218	     -0.70828875	     -1.13143760	      0.68819808	      1.12690959	     -0.21157902	      0.09428305	      0.21185898	     -0.24891588	      0.10804717	      0.24679303	     -0.24891588	      0.14865068	      0.24679303	     -0.18668691	      0.14865068	      0.24679303	     -0.12445794	      0.13488695	      0.10592949	    -12.51621175	     -2.53147247	      3.68742964	     -6.95901029	     -1.26573624	      0.40930547
      0.08000000	   -103.22297842	     38.22169056	    179.45838335	      0.41693535	      0.79663625	     -0.70825933	     -1.09668400	      0.68050449	      1.32745778	     -0.20508009	      0.09322903	      0.24956203	     -0.24127010	      0.10683928	      0.29071305	     -0.24127010	      0.14698886	      0.29071305	     -0.18095258	      0.14698886	      0.29071305	     -0.12063505	      0.13337900	      0.12478102	    -12.56902073	     -2.47764795	      3.35915584	     -6.98837207	     -1.23882398	      0.37286701
      0.09000000	   -103.24710887	     38.28059788	    179.45949068	      0.41700792	      0.79662216	     -0.70837287	     -1.16468084	      0.76549151	      1.24799948	     -0.21779551	      0.10487224	      0.23462387	     -0.25622938	      0.12018225	      0.27331169	     -0.25622938	      0.16534604	      0.27331169	     -0.19217204	      0.16534604	      0.27331169	     -0.12811469	      0.15003648	      0.11731194	    -12.46940234	     -2.59381272	      3.47546100	     -6.93298427	     -1.29690636	      0.38577691
      0.10000000	   -103.24424794	     38.25863589	    179.45749792	      0.41698970	      0.79664846	     -0.70834138	     -1.13869802	      0.71562165	      1.20942210	     -0.21293672	      0.09804008	      0.22737133	     -0.25051317	      0.11235268	      0.26486325	     -0.25051317	      0.15457416	      0.26486325	     -0.18788488	      0.15457416	      0.26486325	     -0.12525659	      0.14026197	      0.11368566	    -12.50535367	     -2.55199965	      3.55441153	     -6.95297320	     -1.27599982	      0.39454043
      0.11000000	   -103.28875537	     38.18683348	    179.45813677	      0.41691867	      0.79677541	     -0.70818929	     -1.11306050	      0.61138141	      1.24042582	     -0.20814250	      0.08375918	      0.23320003	     -0.24487293	      0.09598695	      0.27165306	     -0.24487293	      0.13205829	      0.27165306	     -0.18365470	      0.13205829	      0.27165306	     -0.12243646	      0.11983087	      0.11660001	    -12.57957117	     -2.41265680	      3.57375960	     -6.99423811	     -1.20632840	      0.39668807
      0.12000000	   -103.23578525	     38.22091481	    179.45783207	      0.41692107	      0.79665216	     -0.70825719	     -1.11099027	      0.61001327	      0.95988223	     -0.20775537	      0.08357174	      0.18045784	     -0.24441748	      0.09577215	      0.21021406	     -0.24441748	      0.13176277	      0.21021406	     -0.18331311	      0.13176277	      0.21021406	     -0.12220874	      0.11956271	      0.09022892	    -12.53838176	     -2.48033114	      4.00707425	     -6.97133681	     -1.24016557	      0.44478609
